<?xml version="1.0" encoding="UTF-8" standalone="no"?> <!-- Created with Vectornator for iOS (http://vectornator.io/) --><!DOCTYPE svg PUBLIC "-//W3C//DTD SVG 1.1//EN" "http://www.w3.org/Graphics/SVG/1.1/DTD/svg11.dtd">
<svg style="fill-rule:evenodd;clip-rule:evenodd;stroke-linecap:round;stroke-linejoin:round;" xmlns:vectornator="http://vectornator.io" xmlns:xlink="http://www.w3.org/1999/xlink" xmlns="http://www.w3.org/2000/svg" xml:space="preserve" version="1.1" viewBox="0 0 771 1238">
<metadata>
<vectornator:setting key="RulersVisible" value="1"/>
<vectornator:setting key="Units" value="Points"/>
<vectornator:setting key="DynamicGuides" value="1"/>
<vectornator:setting key="GuidesVisible" value="1"/>
<vectornator:setting key="CMYKEnabledKey" value="0"/>
<vectornator:setting key="SnapToGuides" value="1"/>
<vectornator:setting key="GridSpacing" value="36"/>
</metadata>
<defs/>
<g id="Artboard – 1" vectornator:layerName="Artboard – 1">
<path stroke="#000000" stroke-width="3" d="M224.694-20.833C324.994+323.588+228.87+522.5+275.773+691.887" fill="none" stroke-linecap="square" opacity="1" stroke-linejoin="miter"/>
<path stroke="#000000" stroke-width="3" d="M461.773-8C307.096+250.966+455.327+400.527+383.005+527.888" fill="none" stroke-linecap="square" opacity="1" stroke-linejoin="miter"/>
<g opacity="1">
<path d="M399.591+611.579C394.412+619.189+426.715+646.177+413.955+654.576C403.551+661.425+380.007+602.598+369.776+607.216C352.432+608.989+368.804+606.888+368.765+606.919C363.585+614.529+379.116+646.421+361.782+642.268C352.396+642.238+345.197+598.55+348.175+587.641L348.13+587.588C352.36+566.312+378.7+555.072+387.182+541.918C396.71+527.145+407.265+527.28+416.493+536.847L416.692+536.987C425.409+544.141+478.398+599.114+465.638+607.513C455.234+614.362+447.08+578.168+435.961+582.396L435.752+582.538C430.573+590.148+467.437+621.669+454.677+630.069C444.273+636.918+429.058+592.593+417.939+596.821L417.775+597.151C412.595+604.76+456.704+646.923+443.944+655.323C433.54+662.171+411.08+607.206+399.591+611.579Z" opacity="1" fill="#b83d1d"/>
<path d="M378.986+553.648C353.644+578.477+353.644+578.477+343.806+566.753C333.969+555.029+333.972+555.032+361.319+532.085C388.667+509.137+388.667+509.137+398.502+520.858C408.337+532.578+408.34+532.586+378.986+553.648Z" opacity="1" fill="#962600"/>
</g>
<g opacity="1">
<path d="M227.345+752.418C218.168+753.181+217.518+795.286+202.955+790.652C191.081+786.874+222.001+731.537+211.97+726.49C199.674+714.12+211.613+725.528+211.564+725.516C202.387+726.279+187.366+758.43+179.684+742.338C173.798+735.021+203.236+701.923+213.592+697.371L213.606+697.304C232.811+687.2+258.131+700.604+273.697+698.919C291.182+697.028+297.721+705.319+296.091+718.517L296.108+718.76C296.033+730.041+286.645+805.846+272.082+801.212C260.208+797.434+283.217+768.311+272.931+762.326L272.688+762.254C263.511+763.017+262.208+811.521+247.644+806.888C235.77+803.11+260.656+763.379+250.37+757.394L250.01+757.474C240.833+758.237+235.816+819.073+221.252+814.44C209.378+810.661+237.978+758.598+227.345+752.418Z" opacity="1" fill="#b83d1d"/>
<path d="M259.418+699.93C224.16+695.855+224.16+695.855+227.083+680.826C230.007+665.798+230.006+665.802+265.063+672.62C300.121+679.439+300.121+679.439+297.198+694.464C294.276+709.488+294.272+709.496+259.418+699.93Z" opacity="1" fill="#962600"/>
</g>
</g>
</svg>
