<?xml version="1.0" encoding="UTF-8" standalone="no"?> <!-- Created with Vectornator for iOS (http://vectornator.io/) --><!DOCTYPE svg PUBLIC "-//W3C//DTD SVG 1.1//EN" "http://www.w3.org/Graphics/SVG/1.1/DTD/svg11.dtd">
<svg style="fill-rule:evenodd;clip-rule:evenodd;stroke-linecap:round;stroke-linejoin:round;" xmlns:vectornator="http://vectornator.io" xmlns:xlink="http://www.w3.org/1999/xlink" xmlns="http://www.w3.org/2000/svg" xml:space="preserve" version="1.1" viewBox="0 0 189.9 199.4">
<metadata>
<vectornator:setting key="RulersVisible" value="1"/>
<vectornator:setting key="Units" value="Points"/>
<vectornator:setting key="DynamicGuides" value="1"/>
<vectornator:setting key="GuidesVisible" value="1"/>
<vectornator:setting key="CMYKEnabledKey" value="0"/>
<vectornator:setting key="SnapToGuides" value="1"/>
<vectornator:setting key="GridSpacing" value="36"/>
</metadata>
<defs/>
<g id="surface1" vectornator:layerName="surface1">
<path d="M73.96+112.969C73.96+112.969+57.55+102.799+43.65+123.509C29.76+144.209+24.27+166.759+24.27+166.759L35.91+170.599C35.91+170.599+49.41+127.569+63.48+120.989C63.48+120.989+71.4+120.569+73.96+112.969" opacity="1" fill="#161826"/>
<path d="M28.84+172.169C28.09+174.919+27.29+178.099+28.04+180.919C29.17+185.159+29.89+187.709+27.66+191.709C27.08+192.739+23.55+198.079+25.78+198.819C29.1+199.909+39.88+191.199+40.23+183.129C40.57+175.059+40.7+165.159+32.01+162.559C23.33+159.969+13.73+166.759+10.49+179.869C7.26+192.979+13.66+199.189+16.12+198.359C18.57+197.529+14.69+184.529+20.21+178.299C25.74+172.079+28.84+172.169+28.84+172.169" opacity="1" fill="#adc1d0"/>
<path d="M7.5+190.739C7.5+190.739+13.24+176.909+20.01+174.259L16.66+169.759C16.66+169.759+9.03+170.039+5.41+178.049C1.8+186.049+4.69+196.429+7.5+190.739" opacity="1" fill="#adc1d0"/>
<path d="M4.91999+181.299C4.91999+181.299+15.83+171.039+23.1+171.419L25.53+162.309C25.53+162.309+14.81+163.049+8.23+168.869C1.64+174.679+0.0199955+185.329+4.92+181.299" opacity="1" fill="#adc1d0"/>
<path d="M115.94+112.969C115.94+112.969+132.35+102.799+146.25+123.509C160.14+144.209+165.63+166.759+165.63+166.759L153.99+170.599C153.99+170.599+140.49+127.569+126.42+120.989C126.42+120.989+118.49+120.569+115.94+112.969" opacity="1" fill="#161826"/>
<path d="M161.05+172.169C161.81+174.919+162.61+178.099+161.86+180.919C160.73+185.159+160.01+187.709+162.24+191.709C162.82+192.739+166.35+198.079+164.12+198.819C160.8+199.909+150.02+191.199+149.67+183.129C149.33+175.059+149.2+165.159+157.89+162.559C166.58+159.969+176.17+166.759+179.41+179.869C182.65+192.979+176.24+199.189+173.78+198.359C171.33+197.529+175.21+184.529+169.69+178.299C164.16+172.079+161.05+172.169+161.05+172.169" opacity="1" fill="#adc1d0"/>
<path d="M182.4+190.739C182.4+190.739+176.66+176.909+169.89+174.259L173.24+169.759C173.24+169.759+180.87+170.039+184.49+178.049C188.1+186.049+185.21+196.429+182.4+190.739" opacity="1" fill="#adc1d0"/>
<path d="M184.98+181.299C184.98+181.299+174.07+171.039+166.8+171.419L164.37+162.309C164.37+162.309+175.09+163.049+181.67+168.869C188.26+174.679+189.88+185.329+184.98+181.299" opacity="1" fill="#adc1d0"/>
<path d="M40.34+110.689L40.34+64.0286C40.34+54.9186+32.96+47.5386+23.85+47.5386C14.74+47.5386+7.35+54.9186+7.35+64.0286L7.35+110.689L40.34+110.689" opacity="1" fill="#adc1d0"/>
<path d="M182.55+110.689L182.55+64.0286C182.55+54.9186+175.16+47.5386+166.05+47.5386C156.95+47.5386+149.56+54.9186+149.56+64.0286L149.56+110.689L182.55+110.689" opacity="1" fill="#adc1d0"/>
<path d="M171.51+81.3286C171.51+107.849+158.03+131.219+137.53+144.959C125.36+153.129+110.71+157.879+94.96+157.879C79.19+157.879+64.54+153.119+52.37+144.959C31.87+131.219+18.39+107.849+18.39+81.3286C18.39+54.8086+31.87+31.4386+52.37+17.6986C64.54+9.52858+79.19+4.75859+94.96+4.75859C110.71+4.75859+125.36+9.52859+137.53+17.6986C158.03+31.4286+171.51+54.8086+171.51+81.3286" opacity="1" fill="#96adb8"/>
<path d="M137.53+0.48859L137.53+144.959C125.36+153.129+110.71+157.879+94.96+157.879C79.19+157.879+64.54+153.119+52.37+144.959L52.37+0.48859L137.53+0.48859" opacity="1" fill="#7e919b"/>
<path d="M63.99+124.009C55.99+124.009+49.51+130.489+49.51+138.479L49.51+168.559L78.46+168.559L78.46+138.479C78.46+130.489+71.98+124.009+63.99+124.009" opacity="1" fill="#adc1d0"/>
<path d="M125.91+124.009C117.92+124.009+111.44+130.489+111.44+138.479L111.44+168.559L140.39+168.559L140.39+138.479C140.39+130.489+133.9+124.009+125.91+124.009" opacity="1" fill="#adc1d0"/>
<path d="M58.79+81.3286C58.79+103.049+74.98+120.649+94.95+120.649C114.92+120.649+131.11+103.049+131.11+81.3286C131.11+59.5986+114.92+41.9986+94.95+41.9986C74.98+41.9986+58.79+59.5986+58.79+81.3286" opacity="1" fill="#ffffff"/>
<path d="M94.95+41.9986C112.41+41.9986+126.56+57.3886+126.56+76.3886C126.56+95.3786+112.41+110.779+94.95+110.779C77.49+110.779+63.33+95.3786+63.33+76.3886C63.33+57.3886+77.49+41.9986+94.95+41.9986" opacity="1" fill="#46bbbf"/>
<path d="M64.93+73.5086C64.93+73.5086+70.92+43.8686+92.26+47.2586C113.6+50.6486+110.01+91.0086+98.84+98.0686C87.67+105.129+71.12+90.4486+71.12+90.4486C71.12+90.4486+63.19+79.4786+64.93+73.5086" opacity="1" fill="#2195a2"/>
<path d="M121.98+66.0686C121.98+66.0686+111.05+42.0786+96.43+43.5886C89.28+44.3286+90.45+51.7686+93.55+57.9386C97.29+65.4086+102.16+70.8286+108.51+73.0286C114.16+74.9886+122.6+78.8286+121.98+66.0686" opacity="1" fill="#5ec3c5"/>
<path d="M91.95+45.2186C94.42+45.2186+96.43+48.0586+96.43+51.5586C96.43+55.0586+94.42+57.8986+91.95+57.8986C89.48+57.8986+87.47+55.0586+87.47+51.5586C87.47+48.0586+89.48+45.2186+91.95+45.2186" opacity="1" fill="#ffffff"/>
<path d="M101.38+46.9886C102.62+46.9886+103.62+48.4086+103.62+50.1586C103.62+51.9086+102.62+53.3286+101.38+53.3286C100.14+53.3286+99.14+51.9086+99.14+50.1586C99.14+48.4086+100.14+46.9886+101.38+46.9886" opacity="1" fill="#ffffff"/>
</g>
</svg>
