<svg id="wikipedia" xmlns="http://www.w3.org/2000/svg" width="57.021" height="57" viewBox="0 0 57.021 57">
  <g id="Shape_48_">
    <path id="Path_1" data-name="Path 1" d="M0,28.5A28.511,28.511,0,1,1,28.511,57,28.505,28.505,0,0,1,0,28.5Z" fill="#d8d9d8" fill-rule="evenodd"/>
  </g>
  <g id="Wikipedia_Logo" transform="translate(10.688 17.831)">
    <path id="Path_2" data-name="Path 2" d="M47.552,20.02H40.187l-.092.074v.712c0,.087.033.048.1.105a.316.316,0,0,0,.208.083l.613.037a1.524,1.524,0,0,1,1.251.485q.441.432.1,1.469L35.861,40.156l-.253-.073-4.138-9.4c.055-.13.1-.22.1-.22l3.385-7.032c.391-.739.772-1.4.966-1.71.353-.565.549-.67,1.511-.716.2,0,.3.005.3-.2V20.1l-.078-.079s-4.14-.012-5.986,0l-.091.073V20.8c0,.091.037.051.1.1a.348.348,0,0,0,.217.084l.292.041a1.615,1.615,0,0,1,1.2.388c.179.249.269.513-.168,1.567l-2.6,5.762L28.27,23.4c-.78-1.708-.964-2.235.194-2.337l.463-.077c.22,0,.33.025.33-.146v-.749l-.168-.061H22.743l-.094.073v.751c0,.168.161.1.462.154,1.091.157,1.068.284,2.142,2.658.164.353.64,1.426.64,1.426l2.451,5.358.715,1.758-3.567,7.9-.2-.056S19.752,27.086,18.15,22.748a3.148,3.148,0,0,1-.243-.985c0-.444.353-.677,1.074-.712l.836-.037c.22,0,.326.013.326-.185v-.712l-.071-.073s-6.631-.009-8,0L12,20.116v.75c0,.128.152.11.462.144a2.8,2.8,0,0,1,1.664.451,5.876,5.876,0,0,1,.919,1.872c2.008,5.368,6.284,14.959,8.37,20.418.6,1.484,1.356,1.718,2.268-.048.942-1.942,2.839-6.245,4.222-9.418,1.3,3.167,3.062,7.448,3.912,9.4.684,1.552,1.455,1.707,2.237.043,2.05-5.062,8.043-20.293,8.043-20.293a4.093,4.093,0,0,1,1.083-1.743,3.452,3.452,0,0,1,2.144-.7c.2,0,.3.015.3-.185h.005V20.1Z" transform="translate(-11.996 -20.013)" fill="#fff" fill-rule="evenodd"/>
  </g>
</svg>
